{"glyphs":{" ":{"ha":1389,"x_min":0,"x_max":0,"o":""},"&":{"ha":359,"x_min":0,"x_max":342,"o":"m 82 316 l 140 259 l 170 288 l 113 345 l 82 316 m 147 69 l 196 115 l 116 195 l 67 149 l 147 69 m 319 189 q 262 136 300 172 q 342 113 292 108 q 305 49 317 90 q 217 93 248 52 l 118 0 q 92 36 109 19 l 0 128 l 94 216 l 47 264 q 11 290 30 281 l 136 409 l 146 399 l 146 399 l 237 309 l 161 237 l 241 158 l 269 184 q 263 225 258 201 q 285 262 267 250 q 319 189 290 216 z "},"A":{"ha":418,"x_min":-1,"x_max":399,"o":"m 153 154 l 246 154 l 195 271 l 195 271 l 153 154 m 129 248 q 138 248 135 248 l 206 435 l 351 95 q 399 81 365 60 l 367 0 q 317 12 332 -4 q 288 60 302 28 l 264 114 l 138 114 l 126 78 q 138 73 132 76 q 206 75 170 57 l 154 -13 q 78 19 122 19 q 1 -15 32 19 q 15 41 -1 17 q 77 79 37 74 q 101 146 90 114 q 124 209 113 178 q 72 189 91 210 q 71 194 71 191 q 129 248 71 248 z "},"B":{"ha":320,"x_min":0,"x_max":305,"o":"m 149 102 q 220 73 188 96 l 220 163 q 194 194 220 185 q 149 198 167 203 l 149 102 m 149 238 q 205 251 178 230 q 229 303 233 273 q 205 349 225 326 q 149 324 182 327 l 149 238 m 222 0 q 1 7 113 71 q 28 60 3 37 q 80 94 52 83 l 80 198 q 32 171 47 198 q 38 216 23 195 q 80 237 54 237 l 80 327 q 92 353 80 343 q 52 366 75 353 q 0 359 24 382 q 30 415 1 400 q 92 416 58 430 q 170 425 136 397 q 149 363 149 391 q 220 426 189 375 q 274 380 251 412 q 296 315 296 349 q 242 224 296 264 q 290 160 290 204 q 290 129 290 144 q 290 98 290 113 q 305 63 290 75 q 222 0 243 57 z "},"C":{"ha":361,"x_min":-2,"x_max":345,"o":"m 237 214 l 201 214 l 201 140 q 151 66 201 77 q 237 43 189 40 l 237 214 m 201 244 l 237 244 l 237 341 q 201 356 217 345 l 201 244 m 141 335 q 99 329 121 329 q 70 224 68 290 l 70 224 q 121 91 72 144 q 141 117 138 98 l 141 214 q 102 195 115 218 q 108 231 96 214 q 141 248 121 248 l 141 335 m 268 340 l 268 50 q 334 84 296 56 q 291 31 321 52 q 229 4 261 10 q 75 47 142 -14 q 1 191 8 109 q 19 304 -2 252 q 170 423 60 408 q 110 361 133 397 q 165 376 137 359 q 207 416 193 393 q 345 412 275 370 q 268 340 334 347 z "},"D":{"ha":348,"x_min":-5,"x_max":332,"o":"m 215 98 q 243 85 231 92 l 243 189 l 215 189 l 215 98 m 215 243 l 215 219 l 243 219 l 243 243 l 215 243 m 215 355 l 215 269 l 243 269 l 243 333 q 225 355 242 349 l 215 355 m 144 325 l 144 108 q 184 105 165 109 l 184 355 l 157 355 q 144 325 144 341 m 74 92 l 74 212 q 28 191 46 210 q 38 232 26 212 q 74 252 50 253 l 74 296 q 113 364 74 347 q 29 458 38 373 q 87 428 54 435 q 154 424 121 420 q 196 429 174 426 q 238 428 217 431 q 304 378 283 420 q 315 309 315 355 l 315 140 l 315 140 q 332 71 313 100 q 253 3 271 61 q 126 37 202 34 q 1 0 50 40 q 22 54 -5 28 q 74 92 48 80 z "},"E":{"ha":347,"x_min":-2,"x_max":331,"o":"m 327 414 q 307 360 331 382 q 255 333 283 338 q 181 352 210 323 q 157 299 157 334 l 157 227 q 201 245 172 245 q 239 239 227 243 q 279 251 251 235 l 240 187 q 222 198 233 193 l 222 198 q 157 175 178 212 l 157 103 q 246 81 205 103 q 330 78 288 59 l 280 0 q 134 32 210 32 q 4 7 65 32 q 35 59 8 37 q 87 91 61 81 l 87 191 q 34 169 56 191 q 44 213 26 194 q 87 233 62 233 l 87 271 q 115 339 87 315 q 78 352 99 336 q 0 344 41 376 q 39 410 -2 389 q 86 414 67 424 q 132 400 104 404 q 199 417 168 393 q 265 392 227 392 q 327 414 300 392 z "},"F":{"ha":364,"x_min":0,"x_max":347,"o":"m 104 227 l 104 278 q 108 304 104 288 q 136 341 111 321 q 105 345 115 338 q 82 357 96 351 q 18 341 51 372 q 52 405 18 386 q 113 408 79 419 q 165 396 140 399 q 216 416 191 393 q 281 391 243 391 q 347 416 319 391 q 295 340 345 366 q 200 349 256 319 q 174 294 174 330 l 174 222 q 237 238 212 247 q 292 245 258 230 q 254 186 279 220 q 233 195 241 192 q 174 175 196 206 l 174 77 q 140 27 174 49 q 113 2 125 18 q 61 32 95 30 q 7 0 28 33 q 7 0 7 0 q 7 0 7 0 q 0 30 0 14 q 66 96 0 96 q 104 83 87 96 l 104 189 q 50 163 68 189 q 62 207 46 187 q 104 227 79 227 z "},"G":{"ha":356,"x_min":0,"x_max":339,"o":"m 201 122 q 166 70 195 88 q 214 60 182 63 q 246 87 246 57 l 246 122 l 201 122 m 203 205 q 203 182 203 193 q 203 159 203 170 l 246 159 l 246 205 l 203 205 m 144 217 q 104 195 115 214 q 144 253 89 246 l 144 332 q 102 326 119 324 q 75 213 73 266 l 75 213 q 92 146 77 177 l 92 146 q 126 95 104 115 q 144 120 140 104 l 144 217 m 203 351 l 203 245 q 315 250 264 225 l 315 106 l 315 106 q 274 48 317 69 q 239 6 247 34 q 90 36 158 -14 q 0 212 1 102 q 50 355 0 287 q 182 424 100 424 q 119 359 142 399 q 172 377 145 359 q 214 416 199 395 q 298 396 258 383 q 339 411 337 410 q 289 339 337 359 q 203 351 241 319 z "},"H":{"ha":395,"x_min":-14,"x_max":377,"o":"m 113 341 q 71 353 99 340 q 20 345 41 365 q 64 413 7 395 q 111 413 87 420 q 133 404 123 409 q 156 399 142 399 q 196 415 177 399 q 178 393 195 414 q 171 369 171 383 l 171 234 l 242 234 l 242 337 q 197 360 214 343 l 233 420 q 306 391 262 390 q 377 425 349 393 q 311 342 377 367 l 313 100 q 347 79 313 64 l 306 7 q 242 77 242 17 l 242 191 l 171 191 l 171 81 q 142 34 171 52 q 119 21 129 26 q 105 0 110 16 q 102 6 104 1 q 54 34 89 34 q 6 7 20 34 q 25 84 -14 50 q 102 87 64 117 l 102 193 q 54 167 68 194 q 60 212 45 191 q 102 233 75 233 l 102 313 q 113 341 102 330 z "},"I":{"ha":224,"x_min":-3,"x_max":214,"o":"m 98 106 q 135 94 120 104 l 135 176 l 98 176 l 98 106 m 135 207 l 135 244 l 98 244 l 98 207 l 135 207 m 135 275 l 135 313 q 149 355 136 342 q 98 365 123 345 l 98 275 l 135 275 m 204 358 l 204 92 q 194 60 204 71 q 169 39 183 50 q 137 0 145 23 q 68 48 117 49 q 39 9 35 48 q 3 33 9 12 q 5 73 -3 55 q 68 108 20 104 l 68 207 q 20 189 41 212 q 28 230 14 211 q 68 248 43 249 l 68 363 q 40 322 37 351 q 18 359 20 336 q 42 407 16 389 q 92 424 68 424 q 120 418 111 424 q 141 408 130 413 q 214 407 177 391 q 204 358 204 396 z "},"J":{"ha":315,"x_min":-5,"x_max":300,"o":"m 218 340 q 191 339 201 334 q 175 350 181 345 q 127 338 146 374 q 126 382 113 357 q 179 415 142 412 q 216 405 200 416 q 253 393 233 393 q 300 408 279 393 q 283 387 291 397 q 275 363 275 377 l 275 65 q 287 32 275 46 q 241 53 267 50 l 241 53 q 218 53 229 55 q 174 35 190 49 q 135 9 157 20 q 53 10 94 -9 q 2 73 11 30 q 15 147 -5 108 q 75 184 34 186 q 139 124 123 183 q 93 136 121 143 q 64 95 64 128 q 84 58 64 71 q 127 56 104 45 q 144 67 136 60 q 161 80 152 74 q 206 101 187 95 l 206 197 q 157 173 171 197 q 165 216 148 197 q 206 236 182 235 l 206 309 q 218 340 206 328 z "},"K":{"ha":399,"x_min":-6,"x_max":380,"o":"m 108 85 l 108 205 q 54 180 79 203 q 60 220 46 200 q 108 243 75 241 l 108 315 q 119 348 105 334 q 87 355 100 345 q 26 353 52 375 q 40 401 20 379 q 85 423 59 423 q 121 410 103 422 q 195 415 150 391 q 191 406 192 408 q 177 342 177 376 l 177 235 l 261 343 q 219 366 237 349 l 251 416 q 380 416 315 375 q 312 343 372 359 l 239 249 q 306 214 281 241 q 322 170 321 195 q 323 123 323 145 q 321 103 322 114 q 322 85 320 93 q 349 69 326 65 l 314 3 q 271 25 286 9 q 253 81 253 40 l 253 156 q 248 194 253 177 q 216 218 243 211 l 177 168 q 177 132 177 150 q 177 96 177 114 q 153 38 176 54 q 128 22 140 28 q 110 0 116 17 q 66 37 96 28 q 2 11 26 46 q 18 81 -6 53 q 61 102 35 100 q 108 85 88 104 z "},"L":{"ha":347,"x_min":-7,"x_max":330,"o":"m 195 423 q 262 397 226 395 q 321 419 290 399 q 270 343 319 368 q 182 357 220 319 q 157 322 157 339 l 157 109 q 255 85 205 110 q 330 78 293 63 l 272 0 q 153 39 215 28 q 10 1 92 50 q 87 93 22 63 l 87 193 q 33 174 54 204 q 45 218 28 199 q 87 237 62 237 l 88 281 q 110 342 87 325 q 88 350 96 342 q 69 364 79 358 q 3 346 28 387 q 22 405 -7 378 q 102 418 56 437 q 121 410 113 414 q 140 404 130 405 q 195 423 161 401 z "},"M":{"ha":481,"x_min":-16,"x_max":458,"o":"m 291 314 l 291 221 q 306 221 298 221 q 321 221 313 221 q 315 205 318 213 q 309 191 312 198 q 300 191 304 191 q 291 191 295 191 l 291 66 l 311 48 l 274 4 l 230 41 l 251 66 l 251 191 q 235 191 243 191 q 220 191 228 191 q 226 205 223 198 q 233 221 229 213 q 241 221 237 221 q 251 221 246 221 l 251 309 l 189 344 q 177 307 177 328 l 177 85 q 169 47 177 57 q 144 28 161 38 q 111 1 129 17 q 58 32 89 32 q 8 0 28 33 q 24 80 -16 47 q 108 84 65 114 l 108 191 q 52 172 73 201 q 64 215 44 198 q 108 232 85 231 l 108 302 q 123 341 108 326 q 100 345 107 339 q 81 357 93 351 q 18 349 47 375 q 31 394 14 370 q 87 422 50 422 q 113 417 102 422 q 136 408 123 412 q 203 421 180 391 l 277 379 l 307 426 l 444 342 q 431 313 431 330 l 431 106 q 458 64 431 81 l 428 3 q 378 26 401 3 q 361 76 361 43 l 361 307 l 311 338 l 291 314 z "},"N":{"ha":378,"x_min":0,"x_max":360,"o":"m 143 346 l 253 148 l 253 331 q 196 357 218 335 l 231 413 q 300 395 261 391 q 356 426 328 397 q 340 370 360 398 q 293 334 319 342 l 293 121 q 296 87 293 98 q 323 79 299 77 l 286 1 q 241 25 252 4 q 215 73 229 47 l 115 254 l 115 80 q 188 76 148 63 q 189 75 189 75 l 140 0 q 70 25 108 25 q 0 1 31 25 q 33 66 0 35 q 75 86 54 83 l 75 303 q 69 341 75 332 q 48 344 60 355 q 36 326 41 338 q 22 373 16 345 q 68 411 31 410 q 113 391 92 411 q 143 346 125 378 z "},"O":{"ha":376,"x_min":-25,"x_max":359,"o":"m 285 178 l 251 178 l 251 81 q 285 178 282 121 m 251 208 l 285 208 q 251 288 277 250 l 251 208 m 193 345 q 180 335 184 338 l 180 162 q 174 97 180 121 q 132 63 168 73 q 220 56 182 26 l 220 322 q 193 345 208 333 m 121 312 q 92 306 102 303 q 65 199 63 258 q 100 96 67 140 q 121 118 121 94 l 121 194 q 90 182 100 197 q 95 210 87 196 q 121 224 104 224 l 121 312 m 113 349 q 220 418 174 363 q 245 384 224 399 q 281 357 266 368 q 340 275 321 326 q 353 174 359 224 q 289 51 343 108 q 164 1 235 -5 q 40 73 88 8 q 14 279 -25 163 q 74 373 34 333 q 170 420 117 414 q 113 349 132 392 z "},"P":{"ha":323,"x_min":-3,"x_max":309,"o":"m 152 93 q 189 79 166 90 q 233 83 204 72 l 186 7 q 100 39 148 39 q 6 0 45 39 q 83 88 12 64 l 83 185 q 21 143 42 171 q 83 229 20 207 l 83 328 q 89 359 83 349 q 66 361 75 357 q 47 370 58 366 q 0 361 20 381 q 49 425 -3 412 q 100 418 71 430 q 168 422 127 406 q 155 367 154 392 q 219 422 191 378 l 267 393 q 292 342 292 376 l 292 243 q 309 210 292 220 q 262 200 286 212 q 231 163 239 189 q 152 193 192 191 l 152 93 m 152 241 q 222 218 184 240 l 222 338 q 207 351 216 345 q 152 329 184 329 l 152 241 z "},"Q":{"ha":395,"x_min":-6,"x_max":376,"o":"m 250 94 l 252 93 q 284 188 283 132 l 250 188 l 250 94 m 250 218 l 284 218 q 250 298 278 260 l 250 218 m 220 81 l 220 332 q 192 355 208 344 q 180 345 186 349 l 180 172 q 165 92 180 109 q 220 81 197 96 m 121 322 q 92 315 106 316 q 64 209 62 268 q 100 106 66 151 q 121 128 121 104 l 121 204 q 90 192 99 208 q 95 220 87 206 q 121 234 104 235 l 121 322 m 376 83 q 340 11 349 52 q 253 33 290 1 q 100 31 180 -12 q 19 0 52 25 q 64 57 23 33 q 5 165 16 100 q 14 289 -6 229 q 72 382 32 340 q 170 431 113 424 q 113 359 128 399 q 218 431 178 374 q 244 395 222 411 q 280 368 265 378 q 339 285 320 336 q 352 184 358 234 q 300 73 343 122 q 376 83 342 71 z "},"R":{"ha":368,"x_min":-9,"x_max":351,"o":"m 172 231 l 221 231 q 243 264 243 231 l 243 328 q 232 351 243 345 q 172 321 208 327 l 172 231 m 279 195 q 313 140 311 172 l 313 86 q 351 66 313 47 l 307 7 q 248 58 256 14 q 244 87 244 72 q 243 116 243 103 q 237 166 243 140 q 198 192 231 192 l 172 192 l 172 83 q 134 31 172 47 q 108 0 109 20 q 56 35 88 33 q 3 2 23 36 q 25 80 -9 49 q 102 83 60 112 l 102 192 q 47 168 66 195 q 102 231 40 228 l 102 326 q 111 355 101 341 q 75 366 97 354 q 18 359 46 378 q 38 406 18 387 q 84 426 58 426 q 107 420 97 426 q 130 413 118 415 q 189 420 158 408 q 180 406 183 412 q 172 363 172 393 q 241 425 226 377 l 279 398 q 307 371 302 382 q 313 338 313 360 l 313 258 q 279 195 313 220 z "},"S":{"ha":359,"x_min":-11,"x_max":342,"o":"m 136 258 l 180 311 q 136 327 159 317 q 98 354 114 336 q 101 283 62 319 q 136 258 116 269 m 214 0 q 103 40 165 40 q 13 15 55 40 q 104 98 33 73 q 219 67 174 123 q 237 100 243 85 q 216 127 231 115 q 168 157 194 143 q 118 186 142 172 l 75 132 q 43 109 60 115 q 2 127 12 98 q 28 165 -11 165 q 52 153 43 165 l 92 203 q 52 234 70 216 q 28 340 1 284 q 71 385 38 361 q 113 431 102 408 q 220 366 153 381 q 243 390 231 381 q 319 401 294 432 q 296 332 342 372 q 252 309 278 316 q 214 304 233 303 l 163 242 q 215 213 189 228 q 261 180 240 198 q 299 107 298 149 q 258 37 300 66 q 235 23 246 29 q 214 0 224 16 z "},"T":{"ha":416,"x_min":-14,"x_max":396,"o":"m 128 102 q 161 85 148 96 l 161 170 l 128 170 l 128 102 m 128 235 l 128 201 l 161 201 l 161 235 l 128 235 m 128 349 l 128 266 l 161 266 q 164 305 161 286 q 187 336 168 324 l 187 336 q 128 349 157 338 m 163 3 q 111 41 150 39 q 75 20 74 43 q 87 1 76 10 q 50 13 63 -3 q 39 51 37 28 q 98 103 45 96 l 98 201 q 48 179 67 201 q 98 237 35 237 l 98 350 q 51 337 62 358 q 61 302 39 317 q 5 330 20 295 q 30 401 -14 374 q 85 415 54 416 q 143 409 117 414 q 191 400 168 405 q 240 393 214 395 q 396 428 323 385 q 239 328 362 321 q 231 296 231 309 l 230 110 q 197 42 230 60 q 163 3 169 27 z "},"U":{"ha":382,"x_min":-1,"x_max":364,"o":"m 5 0 q 76 94 9 64 l 76 209 q 32 182 45 208 q 36 225 22 204 q 76 246 50 246 l 76 325 q 64 354 76 349 q 46 349 54 358 q 36 331 38 339 q 0 370 2 338 q 31 416 -1 403 q 91 415 56 429 q 158 416 131 397 q 147 384 149 401 q 145 365 145 367 l 145 103 q 220 70 191 98 l 236 81 l 236 340 q 195 364 211 348 l 232 425 q 312 399 275 395 q 364 419 327 399 q 306 339 364 355 l 306 96 l 306 96 q 329 71 306 66 l 290 3 q 242 36 258 8 q 204 5 218 31 q 5 0 102 75 z "},"V":{"ha":437,"x_min":0,"x_max":416,"o":"m 121 189 q 77 155 87 185 q 73 198 63 175 q 108 225 83 221 l 71 328 q 59 345 67 340 q 31 323 32 360 q 0 361 1 328 q 26 404 0 390 q 81 404 47 416 q 149 416 114 391 q 136 353 125 381 l 221 115 l 294 330 q 247 354 267 337 l 277 414 q 348 391 307 391 q 416 418 388 392 q 395 360 416 386 q 334 327 373 334 l 250 73 l 276 71 l 257 1 q 168 60 191 -5 l 121 189 z "},"W":{"ha":447,"x_min":-5,"x_max":426,"o":"m 81 243 l 81 312 q 77 341 81 330 q 62 358 73 356 q 41 334 46 359 q 5 356 16 334 q 7 399 -5 378 q 68 425 26 428 q 95 416 83 422 q 123 409 106 409 q 161 419 142 408 q 151 361 151 399 l 151 97 q 200 79 178 92 q 219 90 208 85 l 219 208 l 187 208 q 200 238 192 220 l 219 238 l 219 363 l 195 387 l 231 425 l 278 379 l 259 359 l 259 238 l 289 238 l 276 208 l 259 208 l 259 98 q 313 76 290 96 q 330 89 323 79 l 330 338 l 298 372 l 349 425 l 426 345 l 399 319 l 399 105 q 417 66 399 75 q 313 12 353 60 q 241 34 281 38 l 241 34 q 189 9 212 31 q 93 35 147 38 q 1 0 39 32 q 30 54 7 31 q 81 90 53 77 l 81 205 q 35 182 52 207 q 60 241 20 223 q 81 243 68 244 z "},"X":{"ha":368,"x_min":-3,"x_max":351,"o":"m 254 236 q 241 205 250 226 l 222 205 l 277 89 q 321 81 294 50 l 296 2 q 237 19 254 0 q 218 50 230 26 l 168 158 l 125 83 q 178 84 150 67 l 140 3 q 70 29 111 30 q 2 0 29 28 q 23 62 -2 36 q 83 91 47 89 l 147 205 l 98 205 q 111 236 103 216 l 131 236 l 81 340 q 60 355 72 358 q 46 317 41 350 q 1 376 -3 328 q 58 420 5 420 q 90 412 66 420 q 161 426 127 401 q 146 399 154 414 q 145 369 139 383 l 188 278 l 227 348 q 185 363 205 352 l 215 422 q 283 398 248 402 q 351 429 319 394 q 323 369 347 393 q 269 340 298 346 l 210 236 l 254 236 z "},"Y":{"ha":413,"x_min":-22,"x_max":393,"o":"m 220 90 q 263 80 250 90 q 304 82 277 71 l 257 1 q 165 31 216 33 q 74 0 115 29 q 98 54 73 31 q 151 86 123 78 l 151 191 l 79 325 q 66 346 75 332 q 45 353 57 359 q 35 329 33 347 q 9 341 20 330 q 22 408 -22 380 q 83 410 50 426 q 138 412 106 398 q 140 359 127 380 l 205 237 l 264 340 q 218 366 235 347 l 254 418 q 323 396 281 396 q 393 420 366 396 q 361 355 390 379 q 305 332 332 332 l 220 183 l 220 90 z "},"Z":{"ha":352,"x_min":0,"x_max":336,"o":"m 254 239 l 232 205 l 185 205 l 120 105 q 197 102 156 126 q 239 98 219 89 q 250 130 260 108 q 222 142 241 153 q 248 176 227 162 q 290 184 268 190 q 321 147 315 177 q 311 89 327 119 q 315 0 282 33 q 155 32 243 36 q 0 12 66 28 q 67 108 33 60 q 134 205 100 157 l 89 205 l 111 239 l 156 239 l 221 338 q 102 330 158 302 q 6 330 57 353 q 66 429 44 376 q 201 393 137 387 q 336 430 265 399 q 272 334 304 382 q 208 239 239 286 l 254 239 z "},"a":{"ha":248,"x_min":0,"x_max":236,"o":"m 68 149 q 71 76 45 109 q 104 61 84 58 q 137 81 125 64 l 137 151 q 68 149 101 139 m 152 294 q 214 253 172 256 q 199 211 199 239 l 199 86 q 211 64 199 68 q 236 58 223 60 l 198 3 q 142 45 152 1 l 87 0 q 25 25 50 0 q 0 85 0 50 q 52 191 0 154 q 137 180 92 164 l 137 250 q 124 243 128 250 q 75 214 106 214 q 28 239 45 214 q 22 292 12 264 q 152 294 87 246 z "},"b":{"ha":261,"x_min":0,"x_max":249,"o":"m 30 64 l 30 315 q 19 372 30 340 q 100 407 65 376 l 108 400 q 92 359 92 383 l 92 239 l 178 294 q 249 264 203 254 q 228 233 242 245 l 228 66 l 229 65 q 240 33 226 46 q 90 0 157 52 q 0 33 55 45 q 30 64 12 53 m 92 207 l 92 77 q 134 58 115 73 q 165 65 151 63 l 165 219 q 138 235 149 224 l 92 207 z "},"c":{"ha":195,"x_min":0,"x_max":186,"o":"m 94 240 q 90 238 92 239 q 87 237 88 237 l 87 81 q 125 65 109 77 q 166 79 144 53 l 178 68 l 121 0 q 0 35 68 43 q 24 64 9 52 l 24 225 q 13 258 24 245 q 118 297 76 246 q 186 268 140 256 q 147 227 178 236 q 94 240 116 218 z "},"d":{"ha":258,"x_min":0,"x_max":245,"o":"m 127 287 q 83 347 99 320 q 37 374 68 370 l 37 382 q 110 415 79 389 q 245 260 164 328 q 235 207 235 235 l 235 70 q 243 39 235 54 q 174 42 205 49 l 174 42 q 109 0 134 32 q 0 37 69 62 q 31 74 10 59 l 31 222 q 20 257 31 241 q 76 264 51 255 q 127 287 100 273 m 172 71 l 172 235 q 145 265 153 256 l 94 239 l 94 87 q 144 62 123 83 q 172 71 163 68 z "},"e":{"ha":212,"x_min":0,"x_max":203,"o":"m 92 168 l 132 193 l 104 247 q 98 244 101 245 q 92 243 95 243 l 92 168 m 147 302 q 174 248 160 275 q 203 196 187 222 l 92 129 l 92 83 q 144 75 114 84 q 184 77 174 64 l 195 68 l 140 0 q 0 32 76 44 q 30 64 11 50 l 30 226 q 12 259 30 247 q 147 302 84 262 z "},"f":{"ha":216,"x_min":0,"x_max":206,"o":"m 152 73 l 163 62 q 98 0 124 32 q 0 41 54 33 q 37 73 12 62 l 37 241 l 5 241 l 5 282 l 37 282 q 37 320 37 300 q 27 357 37 340 q 146 416 97 362 q 206 385 170 390 q 121 357 177 330 q 99 345 114 352 l 99 282 l 157 282 l 157 241 l 99 241 l 99 75 q 113 68 109 71 q 152 73 133 56 z "},"g":{"ha":256,"x_min":0,"x_max":244,"o":"m 224 230 l 224 -24 q 237 -68 224 -50 q 102 -101 157 -38 q 5 -66 64 -54 q 66 -23 26 -31 q 139 -40 106 -16 q 162 -33 144 -38 l 162 57 l 87 0 q 0 34 54 46 q 23 62 7 50 l 23 229 l 23 229 q 13 261 22 247 q 167 297 96 243 q 244 267 193 249 q 224 230 239 244 m 85 230 l 85 77 q 121 61 105 73 l 162 92 l 162 214 q 124 239 138 220 q 85 230 104 233 z "},"h":{"ha":277,"x_min":0,"x_max":264,"o":"m 96 239 l 181 299 q 254 276 205 245 q 233 235 250 251 l 233 87 q 264 59 233 56 l 212 1 q 172 52 172 10 l 172 218 q 139 235 152 222 l 96 204 l 96 77 q 140 51 123 71 l 87 0 q 0 31 54 45 q 35 68 12 56 l 35 349 q 24 374 35 362 q 103 408 66 383 l 109 402 q 96 366 96 391 l 96 239 z "},"i":{"ha":143,"x_min":0,"x_max":136,"o":"m 98 214 l 98 79 q 133 50 98 41 l 136 43 l 92 0 q 35 54 35 -3 q 35 126 35 90 q 35 199 35 162 q 6 224 35 231 l 0 233 q 65 286 39 255 q 93 262 77 274 q 128 262 109 250 q 98 214 131 227 z "},"j":{"ha":222,"x_min":0,"x_max":212,"o":"m 212 264 q 185 221 209 236 l 185 -30 q 195 -60 185 -45 q 66 -101 119 -46 q 0 -34 43 -57 q 99 -42 52 -5 q 123 -33 106 -39 l 123 217 q 97 241 106 225 l 153 290 q 212 264 170 252 z "},"k":{"ha":261,"x_min":0,"x_max":249,"o":"m 94 149 l 166 195 l 138 237 l 94 206 l 94 149 m 94 240 l 174 295 l 233 208 l 170 166 q 185 136 177 153 l 213 75 q 248 54 222 52 l 249 48 l 196 0 q 157 36 165 7 l 127 115 q 115 130 123 125 l 94 116 l 94 73 q 132 50 115 66 l 83 0 q 0 32 50 39 q 32 65 10 52 l 32 334 q 23 359 32 347 q 103 405 65 375 l 109 397 q 94 362 94 382 l 94 240 z "},"l":{"ha":142,"x_min":0,"x_max":136,"o":"m 90 361 l 90 71 q 109 59 102 66 q 127 60 116 52 l 136 48 l 75 0 q 0 37 42 29 q 27 66 9 56 l 27 342 q 18 366 27 354 q 96 401 60 374 l 102 395 q 90 361 90 379 z "},"m":{"ha":422,"x_min":0,"x_max":403,"o":"m 97 229 l 189 295 q 233 237 233 283 l 317 297 q 393 277 353 251 q 370 222 395 243 l 370 91 q 403 63 370 64 l 403 57 l 353 1 q 308 50 307 3 l 308 212 q 279 235 288 219 l 233 202 l 234 73 q 271 50 255 67 l 220 0 q 139 30 185 36 q 172 66 149 53 l 172 209 q 156 237 172 227 l 97 193 l 97 74 q 129 56 115 68 l 78 2 q 3 27 46 35 q 35 64 12 52 l 35 201 l 35 201 q 23 223 35 216 q 0 237 11 231 q 55 294 31 259 q 97 229 97 280 z "},"n":{"ha":278,"x_min":0,"x_max":265,"o":"m 100 248 l 100 237 l 189 298 q 217 267 195 275 q 258 272 238 258 q 235 229 254 246 l 235 87 l 235 87 q 265 58 235 58 l 220 2 q 173 50 173 2 l 173 214 q 141 233 155 218 l 100 204 l 100 75 q 144 46 125 68 l 88 0 q 0 32 55 45 q 37 68 12 56 l 37 212 q 7 242 37 228 l 64 296 q 100 248 100 286 z "},"o":{"ha":269,"x_min":0,"x_max":257,"o":"m 92 231 l 92 83 q 132 61 116 77 q 167 71 151 68 l 167 222 q 136 241 148 229 q 92 231 116 234 m 240 47 q 79 0 151 52 q 0 34 52 46 q 29 73 5 57 l 29 225 q 20 258 29 243 q 187 298 111 248 q 257 262 209 253 q 229 231 248 242 l 229 82 q 240 47 231 61 z "},"p":{"ha":298,"x_min":0,"x_max":284,"o":"m 109 240 l 109 222 l 218 298 q 284 261 233 250 q 246 224 272 235 l 246 73 q 259 39 246 52 q 129 0 187 39 q 109 23 119 14 l 109 -30 q 116 -64 109 -50 q 29 -93 68 -64 l 23 -85 q 46 -45 45 -72 l 46 42 q 0 24 19 39 q 46 84 9 64 l 46 199 q 12 238 46 233 l 71 299 q 109 240 109 281 m 109 188 l 109 92 q 165 53 145 83 q 184 59 165 53 l 184 224 q 170 231 172 229 l 109 188 z "},"q":{"ha":266,"x_min":0,"x_max":254,"o":"m 24 235 q 13 263 24 251 q 162 294 95 244 q 254 261 197 247 q 221 229 240 239 l 221 -41 l 221 -41 l 221 -41 q 233 -81 221 -61 q 231 -81 232 -81 q 231 -81 231 -81 q 146 -116 182 -81 l 138 -108 q 159 -59 159 -90 l 159 54 l 70 0 q 0 31 45 39 q 24 64 7 51 l 24 235 m 159 218 q 118 239 136 222 q 87 231 100 233 l 87 75 q 114 59 102 69 l 159 87 l 159 218 z "},"r":{"ha":228,"x_min":0,"x_max":217,"o":"m 58 293 q 98 244 98 284 l 98 230 q 155 297 130 261 q 215 267 172 254 q 187 216 217 232 q 130 218 157 199 q 98 189 115 203 l 98 81 q 121 69 111 77 q 151 72 136 57 l 162 62 l 100 0 l 75 18 q 0 29 40 45 q 35 74 9 57 l 35 209 q 7 235 35 223 q 58 293 35 261 z "},"s":{"ha":237,"x_min":0,"x_max":226,"o":"m 226 33 q 100 0 153 51 q 45 31 81 31 q 0 14 18 31 q 53 74 8 60 q 131 56 98 87 q 155 63 140 59 l 155 149 l 78 122 l 25 148 l 25 217 q 16 248 25 236 q 132 294 86 240 q 220 286 173 257 q 178 235 213 249 q 113 239 144 220 q 87 227 101 233 l 87 161 l 157 186 l 217 151 l 217 60 q 226 33 217 43 z "},"t":{"ha":161,"x_min":0,"x_max":154,"o":"m 20 277 l 37 277 l 37 308 q 29 331 37 321 q 102 362 71 336 l 110 357 q 100 315 100 337 l 100 277 q 145 283 135 277 l 145 231 q 100 236 136 236 l 100 75 q 125 62 113 71 q 144 64 134 55 l 154 53 l 98 0 q 56 25 76 15 q 7 31 35 36 q 37 65 16 52 l 37 236 q 0 231 9 236 q 0 256 0 243 q 0 283 0 269 q 20 277 9 277 z "},"u":{"ha":278,"x_min":0,"x_max":265,"o":"m 166 50 l 166 60 l 77 0 q 48 31 70 22 q 7 26 26 39 q 30 68 10 51 l 30 210 l 30 210 q 0 241 30 239 l 46 296 q 92 249 92 296 l 92 84 q 124 66 111 79 l 166 94 l 166 222 q 121 252 138 229 l 178 298 q 265 266 210 252 q 229 229 252 241 l 229 87 q 258 56 229 69 l 202 1 q 166 50 166 11 z "},"v":{"ha":325,"x_min":0,"x_max":310,"o":"m 109 0 q 73 105 91 52 q 39 210 56 157 q 0 257 26 241 q 29 275 14 266 q 58 295 43 285 q 85 268 78 288 q 121 159 103 214 q 158 51 140 105 q 190 135 174 91 q 223 220 207 180 q 203 230 211 224 q 181 229 192 237 l 173 241 l 245 295 q 310 267 262 251 q 252 218 296 222 q 214 118 233 170 q 176 18 194 66 q 109 0 138 20 z "},"w":{"ha":422,"x_min":0,"x_max":403,"o":"m 307 68 l 214 2 q 170 60 170 13 l 86 0 q 11 20 49 45 q 33 75 6 53 l 33 206 q 0 233 33 233 l 0 240 l 51 296 q 96 247 96 293 l 96 85 q 125 62 113 78 l 170 95 l 170 224 q 133 248 147 230 l 184 297 q 264 267 215 260 q 232 231 252 243 l 232 88 q 247 60 232 68 l 307 103 l 307 223 q 275 241 288 228 l 326 295 q 400 270 356 262 q 369 232 390 245 l 369 95 l 369 95 q 380 73 368 79 q 403 60 392 66 q 348 3 370 36 q 307 68 307 15 z "},"x":{"ha":267,"x_min":-2,"x_max":254,"o":"m 112 267 l 140 206 l 181 298 q 212 274 190 278 q 250 288 235 269 q 231 232 254 256 q 175 215 207 209 l 156 174 l 201 81 l 201 81 q 243 65 214 54 l 248 55 l 209 0 q 155 33 170 0 q 139 65 147 49 q 123 98 131 82 l 81 5 q 0 9 43 41 q 24 66 -2 44 q 83 78 51 87 l 107 132 l 66 216 q 23 250 52 243 l 79 292 q 112 267 101 286 z "},"y":{"ha":261,"x_min":0,"x_max":249,"o":"m 127 231 l 119 243 l 186 291 q 249 269 211 262 q 220 227 242 242 l 220 -33 q 234 -73 220 -54 q 98 -104 155 -41 q 7 -67 64 -56 q 64 -28 27 -35 q 130 -45 100 -22 q 158 -37 145 -39 l 158 54 l 82 0 q 11 37 58 43 q 18 53 15 47 q 21 71 21 59 l 21 216 q 0 253 21 241 l 59 292 q 83 254 83 283 l 83 76 q 115 58 102 72 l 158 88 l 158 220 q 143 230 150 224 q 127 231 136 237 z "},"z":{"ha":233,"x_min":0,"x_max":222,"o":"m 7 10 l 134 220 q 39 217 87 199 q 12 214 22 222 l 0 224 l 56 289 q 189 292 123 250 l 204 283 l 83 82 q 176 83 130 101 q 208 92 195 76 l 208 92 q 209 93 208 93 l 222 85 l 171 4 q 23 0 96 54 q 7 10 23 0 z "},"◼":{"ha":298,"x_min":0,"x_max":298,"o":"m 0 298 l 298 298 l 298 0 l 0 0 l 0 298 z "}}}
